<?xml version="1.0" encoding="UTF-8" standalone="no"?>
<svg
   xmlns:dc="http://purl.org/dc/elements/1.1/"
   xmlns:cc="http://creativecommons.org/ns#"
   xmlns:rdf="http://www.w3.org/1999/02/22-rdf-syntax-ns#"
   xmlns:svg="http://www.w3.org/2000/svg"
   xmlns="http://www.w3.org/2000/svg"
   xmlns:sodipodi="http://sodipodi.sourceforge.net/DTD/sodipodi-0.dtd"
   xmlns:inkscape="http://www.inkscape.org/namespaces/inkscape"
   viewBox="0 0 277.18875 271.86124"
   height="271.86124"
   width="277.18875"
   xml:space="preserve"
   version="1.1"
   id="svg2"
   sodipodi:docname="axidlab_symbol.svg"
   inkscape:version="0.92.5 (2060ec1f9f, 2020-04-08)"><sodipodi:namedview
     pagecolor="#ffffff"
     bordercolor="#666666"
     borderopacity="1"
     objecttolerance="10"
     gridtolerance="10"
     guidetolerance="10"
     inkscape:pageopacity="0"
     inkscape:pageshadow="2"
     inkscape:window-width="2560"
     inkscape:window-height="1415"
     id="namedview883"
     showgrid="false"
     inkscape:zoom="4.4471217"
     inkscape:cx="138.59438"
     inkscape:cy="135.93062"
     inkscape:window-x="0"
     inkscape:window-y="0"
     inkscape:window-maximized="1"
     inkscape:current-layer="g10" /><metadata
     id="metadata8"><rdf:RDF><cc:Work
         rdf:about=""><dc:format>image/svg+xml</dc:format><dc:type
           rdf:resource="http://purl.org/dc/dcmitype/StillImage" /><dc:title></dc:title></cc:Work></rdf:RDF></metadata><defs
     id="defs6"><clipPath
       id="clipPath16"
       clipPathUnits="userSpaceOnUse"><path
         id="path18"
         d="m 0,217.489 221.751,0 L 221.751,0 0,0 0,217.489 Z" /></clipPath></defs><g
     transform="matrix(1.25,0,0,-1.25,0,271.86125)"
     id="g10"><g
       id="g12"
       style="fill:#32469a;fill-opacity:1"><g
         clip-path="url(#clipPath16)"
         id="g14"
         style="fill:#32469a;fill-opacity:1"><g
           transform="translate(58.4829,162.3369)"
           id="g20"
           style="fill:#32469a;fill-opacity:1"><path
             id="path22"
             style="fill:#32469a;fill-opacity:1;fill-rule:nonzero;stroke:none"
             d="m 0,0 c 13.099,18.959 19.118,28.173 21.209,37.358 0.751,3.299 2.55,6.769 5.19,9.72 C -15.08,36.763 -46.67,1.466 -51.483,-41.921 c 5.351,6.076 14.251,8.085 20.824,12.086 C -23.234,-25.317 -9.676,-14.005 0,0" /></g><g
           transform="translate(176.6118,54.2539)"
           id="g24"
           style="fill:#32469a;fill-opacity:1"><path
             id="path26"
             style="fill:#32469a;fill-opacity:1;fill-rule:nonzero;stroke:none"
             d="m 0,0 c -10.299,-11.033 -8.866,-21.487 -8.625,-24.931 0.08,-1.134 0.179,-3.661 -0.371,-6.558 C 10.172,-18.63 24.797,0.465 32.002,22.886 24.875,18.551 14.979,16.052 0,0" /></g><g
           transform="translate(114.0259,212.3848)"
           id="g28"
           style="fill:#32469a;fill-opacity:1"><path
             id="path30"
             style="fill:#32469a;fill-opacity:1;fill-rule:nonzero;stroke:none"
             d="m 0,0 c 5.742,-4.844 7.107,-12.302 6.49,-15.782 -0.845,-4.777 -1.291,-22.144 7.636,-36.524 15.491,-24.959 28.715,-21.126 36.024,-34.076 5.455,-9.661 0.726,-21.692 -8.785,-26.805 -8.913,-4.791 -24.145,-2.048 -30.142,8.953 -2.926,5.366 -2.657,15.119 -5.203,24.955 -3.577,13.8 -10.982,27.707 -27.052,28.586 -26.732,1.464 -37.801,-53.461 -42.647,-66.236 -4.097,-10.798 -19.938,-22.984 -38.954,-10.528 -0.979,0.642 -1.876,1.306 -2.696,1.987 10.073,-46.679 51.575,-81.666 101.267,-81.666 11.114,0 21.812,1.77 31.848,5.008 -9.052,3.441 -12.233,12.907 -14.059,18.149 -2.038,5.856 -11.127,23.812 -16.622,32.087 -7.206,10.853 -17.388,16.804 -23.545,20.799 -6.158,3.995 -14.556,6.081 -19.53,13.931 -3.804,6.003 -5.338,24.539 12.258,29.961 20.925,6.447 32.903,-8.906 33.689,-18.596 0.785,-9.69 4.003,-47.534 28.097,-49.494 14.485,-1.177 22.627,7.741 27.326,17.014 3.351,6.605 7.791,25.112 10.807,28.65 10.097,11.844 23.553,6.313 26.874,4.554 2.37,-1.255 4.502,-3.21 6.208,-5.533 0.158,2.345 0.268,4.704 0.268,7.09 C 99.557,-47.65 55.341,-2.136 0,0" /></g></g></g></g></svg>