<svg xmlns="http://www.w3.org/2000/svg" version="1.1" xmlns:xlink="http://www.w3.org/1999/xlink"
     xmlns:svgjs="http://svgjs.dev/svgjs" width="276.70975" height="241.2505">
    <svg version="1.1" viewBox="0 0 276.70975 241.2505" xml:space="preserve" id="SvgjsSvg1042" sodipodi:docname="lazy_rabbit_symbol.svg" inkscape:version="1.1.2 (0a00cf5339, 2022-02-04)" width="276.70975" height="241.2505" xmlns:inkscape="http://www.inkscape.org/namespaces/inkscape" xmlns:sodipodi="http://sodipodi.sourceforge.net/DTD/sodipodi-0.dtd" xmlns="http://www.w3.org/2000/svg" xmlns:svg="http://www.w3.org/2000/svg"><defs id="SvgjsDefs1041"></defs><sodipodi:namedview
            id="SvgjsSodipodi:namedview1040" pagecolor="#ffffff" bordercolor="#111111" borderopacity="1"
            inkscape:pageshadow="0" inkscape:pageopacity="0" inkscape:pagecheckerboard="1" showgrid="false"
            inkscape:zoom="2.47" inkscape:cx="95.748988" inkscape:cy="121.86235" inkscape:window-width="2560"
            inkscape:window-height="1408" inkscape:window-x="0" inkscape:window-y="0" inkscape:window-maximized="1"
            inkscape:current-layer="svg16" fit-margin-top="0" fit-margin-left="0" fit-margin-right="0"
            fit-margin-bottom="0"></sodipodi:namedview>
        ,,,,


        <g transform="matrix(1.25,0,0,-1.25,-0.40445353,270.32523)" id="SvgjsG1039" style="fill:#a2c3a4;fill-opacity:1"><path id="SvgjsPath1038" d="m 103.03985,216.25987 c -0.53318,-0.003 -1.07528,-0.0323 -1.62683,-0.0875 -13.746201,-1.37532 -21.334812,-16.99931 -14.470438,-28.78623 2.808078,-4.822 7.903031,-7.61783 12.251218,-10.86491 8.67934,-6.48197 18.02076,-12.43683 26.26072,-19.46438 H 44.822995 25.21991 c -5.378426,0 -10.736355,0.1039 -15.5345185,-2.67505 -13.2107382,-7.65112 -12.4121092,-28.3674 2.2192165,-34.13995 7.013276,-2.76737 16.251321,-1.28156 23.671652,-1.28156 h 47.713155 c -1.312307,-10.37517 -0.739749,-20.979732 -0.739749,-31.438899 0,-14.617248 -0.961624,-28.734418 6.825244,-41.795242 1.882269,-3.157198 4.270109,-5.920138 6.859925,-8.506997 17.097945,-17.077245 41.148345,-13.685165 63.247675,-13.68517 15.87775,0 31.25175,-0.294701 44.38434,10.152629 19.94076,15.863326 17.75373,39.11694 17.75373,61.971899 0,14.00071 0.31138,27.15988 -7.19439,39.57604 -4.80127,7.94257 -12.18492,12.8234 -19.43621,18.2616 -11.25402,8.44079 -22.70407,16.6233 -34.02799,24.96976 l -37.72669,27.74022 c -6.19509,4.56611 -12.19768,10.10653 -20.19545,10.05368 z m 90.48799,-97.82977 a 13.149216,13.982492 0 0 0 13.14915,-13.98206 13.149216,13.982492 0 0 0 -13.14915,-13.982811 13.149216,13.982492 0 0 0 -13.14915,13.982811 13.149216,13.982492 0 0 0 13.14915,13.98206 z" style="fill:#a2c3a4;fill-opacity:1"></path></g>
          </svg>
    <style>@media (prefers-color-scheme: light) { :root { filter: none; } }
        @media (prefers-color-scheme: dark) { :root { filter: none; } }
    </style>
</svg>